<svg xmlns="http://www.w3.org/2000/svg" viewBox="-295 387 21 20" enable-background="new -295 387 21 20"><g><path d="M-286 388.7c0-.8.6-1.5 1.5-1.5.8 0 1.5.6 1.5 1.5 0 .8-.6 1.5-1.5 1.5-.7 0-1.4-.6-1.5-1.5"/><path d="M-279.7 390.1c.6-.6 1.5-.6 2.1 0 .6.6.6 1.5 0 2.1-.6.6-1.5.6-2.1 0-.5-.6-.6-1.5 0-2.1"/><path d="M-276.2 395.5c.8 0 1.5.6 1.5 1.5 0 .8-.6 1.5-1.5 1.5s-1.5-.6-1.5-1.5c0-.8.7-1.5 1.5-1.5"/><path d="M-277.6 401.7c.6.6.6 1.5 0 2.1-.6.6-1.5.6-2.1 0-.6-.6-.6-1.5 0-2.1.6-.5 1.5-.5 2.1 0"/><path d="M-282.9 405.2c0 .8-.6 1.5-1.5 1.5-.8 0-1.5-.6-1.5-1.5 0-.8.6-1.5 1.5-1.5.8 0 1.4.7 1.5 1.5"/><path d="M-289.2 403.9c-.6.6-1.5.6-2.1 0-.6-.6-.6-1.5 0-2.1.6-.6 1.5-.6 2.1 0 .5.5.6 1.5 0 2.1"/><path d="M-292.7 398.5c-.8 0-1.5-.6-1.5-1.5 0-.8.6-1.5 1.5-1.5.8 0 1.5.6 1.5 1.5 0 .8-.7 1.5-1.5 1.5"/><path d="M-291.3 392.2c-.6-.6-.6-1.5 0-2.1.6-.6 1.5-.6 2.1 0 .6.6.6 1.5 0 2.1-.6.6-1.5.6-2.1 0"/></g></svg>