<svg xmlns="http://www.w3.org/2000/svg" viewBox="-290 383 30 27" enable-background="new -290 383 30 27"><g><path d="M-275.2 383.2c-3.6 0-6.8 1.5-9.2 3.9v1.1l.4.4h1c1-1 2.2-1.8 3.5-2.4 1.3-.6 2.8-.9 4.3-.9s2.9.3 4.3.9c1.3.6 2.5 1.4 3.5 2.4s1.8 2.2 2.3 3.6c.6 1.4.9 2.8.9 4.3h-1.8l2.8 2.8 2.8-2.8h-1.8c-.1-7.4-5.9-13.3-13-13.3z"/><path d="M-267.5 404.3c-1 1-2.2 1.8-3.5 2.4-1.3.6-2.8.9-4.3.9s-2.9-.3-4.3-.9c-1.3-.6-2.5-1.4-3.5-2.4s-1.8-2.2-2.3-3.6c-.6-1.4-.9-2.8-.9-4.3h1.8l-2.8-2.8-2.8 2.8h1.8c0 7.3 5.8 13.2 12.9 13.2 3.6 0 6.8-1.5 9.2-3.9v-1.1l-.4-.4h-.9"/></g></svg>