<?xml version="1.0" encoding="utf-8"?>
<!-- Generator: Adobe Illustrator 17.1.0, SVG Export Plug-In . SVG Version: 6.00 Build 0)  -->
<!DOCTYPE svg PUBLIC "-//W3C//DTD SVG 1.1//EN" "http://www.w3.org/Graphics/SVG/1.1/DTD/svg11.dtd">
<svg version="1.1" id="Layer_1" xmlns="http://www.w3.org/2000/svg" xmlns:xlink="http://www.w3.org/1999/xlink" x="0px" y="0px"
	 width="493.9px" height="161.1px" viewBox="0 0 493.9 161.1" enable-background="new 0 0 493.9 161.1" xml:space="preserve">
<path fill="#FFFFFF" d="M58.4,156.3L0,4.8h36.6l42,116.3l42-116.3h36.6L98.8,156.3L58.4,156.3z"/>
<path fill="#FFFFFF" d="M177.5,134.7l17.7-25.2c10.7,11.1,27.3,20.7,48.1,20.7c17.9,0,26.3-8,26.3-16.8c0-26.3-87.2-8-87.2-65
	c0-25.2,21.8-46.1,57.5-46.1C264,2.3,284,9.6,299,23.4l-17.9,24.1c-12.3-11.4-28.6-16.6-44.1-16.6c-13.6,0-21.3,5.9-21.3,15
	c0,23.8,87,7.7,87,64.3c0,27.7-20,48.6-60.6,48.6C212.7,158.8,191.8,149,177.5,134.7z"/>
<g>
	<path fill="#A9A84A" d="M431.9,74.5c-9.5,0-16.1,7.5-16.1,16.7v0.1c0,9.2,6.8,16.9,16.2,16.9c9.5,0,16.1-7.5,16.1-16.7v-0.2
		C448.2,82.2,441.5,74.5,431.9,74.5z"/>
	<path fill="#A9A84A" d="M413.4,0c-44.5,0-80.5,36.1-80.5,80.5c0,44.5,36.1,80.5,80.5,80.5c44.5,0,80.5-36.1,80.5-80.5
		C493.9,36.1,457.8,0,413.4,0z M460.5,91.4c0,15.3-12,27.8-28.6,27.8c-14.9,0-26-10.1-28.1-23.2c-2.9,1-6.2,1.5-10.2,1.5
		c-15.8,0-27.5-12.2-27.5-27.6v-0.2c0-15.3,11.5-27.8,28-27.8c10.1,0,16.2,3.4,21.2,8.3l-7.5,8.7c-4.1-3.8-8.4-6.1-13.7-6.1
		c-9,0-15.6,7.5-15.6,16.7v0.2c0,9.2,6.4,16.9,15.6,16.9c4.4,0,7.6-1.3,10.7-3.5c3.5-11.2,13.9-19.4,27.3-19.4
		c16.6,0,28.4,12.3,28.4,27.6V91.4z"/>
</g>
<g>
	<g>
		<path fill="#FFFFFF" d="M480,161.1v-5.8H478v-1.7h6.1v1.7H482v5.8H480z"/>
		<path fill="#FFFFFF" d="M492,161.1v-4.9l-1.9,4.9h-0.9l-1.9-4.9v4.9h-1.9v-7.5h2.7l1.6,4.1l1.6-4.1h2.7v7.5H492z"/>
	</g>
</g>
</svg>
